<?xml version="1.0" encoding="UTF-8" standalone="no"?>
<!-- Generator: Adobe Illustrator 16.0.0, SVG Export Plug-In . SVG Version: 6.00 Build 0)  -->

<svg
   xmlns:dc="http://purl.org/dc/elements/1.1/"
   xmlns:cc="http://creativecommons.org/ns#"
   xmlns:rdf="http://www.w3.org/1999/02/22-rdf-syntax-ns#"
   xmlns:svg="http://www.w3.org/2000/svg"
   xmlns="http://www.w3.org/2000/svg"
   xmlns:xlink="http://www.w3.org/1999/xlink"
   xmlns:sodipodi="http://sodipodi.sourceforge.net/DTD/sodipodi-0.dtd"
   xmlns:inkscape="http://www.inkscape.org/namespaces/inkscape"
   version="1.1"
   id="Layer_1"
   x="0px"
   y="0px"
   width="490.834px"
   height="274.766px"
   viewBox="0 0 490.834 274.766"
   enable-background="new 0 0 490.834 274.766"
   xml:space="preserve"
   inkscape:version="0.48.5 r10040"
   sodipodi:docname="vissoft-logo.svg"><metadata
     id="metadata101"><rdf:RDF><cc:Work
         rdf:about=""><dc:format>image/svg+xml</dc:format><dc:type
           rdf:resource="http://purl.org/dc/dcmitype/StillImage" /></cc:Work></rdf:RDF></metadata><defs
     id="defs99" /><sodipodi:namedview
     pagecolor="#ffffff"
     bordercolor="#666666"
     borderopacity="1"
     objecttolerance="10"
     gridtolerance="10"
     guidetolerance="10"
     inkscape:pageopacity="0"
     inkscape:pageshadow="2"
     inkscape:window-width="1415"
     inkscape:window-height="855"
     id="namedview97"
     showgrid="false"
     inkscape:zoom="1.7463261"
     inkscape:cx="250.43127"
     inkscape:cy="90.427275"
     inkscape:window-x="0"
     inkscape:window-y="0"
     inkscape:window-maximized="1"
     inkscape:current-layer="Layer_1_1_" /><g
     id="Layer_1_1_"><path
       d="M66.539,52.473c0-10.826,7.16-18.808,16.299-18.808h121.641c8.673,0,14.061,6.898,14.061,18.808v10.441l70.442-24.874   L153.822,0.997L7.854,24.75L66.54,72.756L66.539,52.473L66.539,52.473z"
       id="path4" /><path
       d="M82.838,185.667c-9.604,0-16.299-12.091-16.299-22.494v-82.63L2,27.811L42.375,169.31l71.161,105.206l-6.622-88.85H82.838z   "
       id="path6" /><path
       d="M218.539,161.667v1.506c0,12.95-5.782,22.494-14.061,22.494H112.93l6.618,88.812l118.732-84.145l11.294-28.667H218.539z"
       id="path8" /><polygon
       points="278.603,87.667 295.438,44.496 218.539,71.399 218.539,87.667  "
       id="polygon10" /><path
       fill="#E6E6E6"
       d="M148.769,41.667H82.839c-4.653,0-8.299,4.466-8.299,10.808V151.8l70.159-30.877L148.769,41.667z"
       id="path12" /><path
       fill="#E6E6E6"
       d="M150.678,121.467l59.761,44.306c0.063-0.804,0.101-1.753,0.101-2.6V52.473   c0-2.652-0.407-10.808-6.029-10.808h-49.731L150.678,121.467z"
       id="path14" /><path
       fill="#E6E6E6"
       d="M82.838,177.667h121.641c1.862,0,3.532-2.205,4.645-5.271l-61.908-46.151l-72.676,32.119v4.809   C74.539,170.709,79.103,177.667,82.838,177.667z"
       id="path16" /><g
       id="g18"><circle
         cx="170.646"
         cy="137.942"
         r="11.802"
         id="circle20" /></g><g
       id="g22"><circle
         cx="95.455"
         cy="77.216"
         r="6.098"
         id="circle24" /></g><path
       d="M185.49,92.112c-2.206-9.016-8.267-24.838-24.071-29.507c-12.678-3.745-24.726-2.967-37.917,2.448l-1.139-2.775   c13.669-5.61,26.722-6.443,39.905-2.549c17.244,5.094,23.775,22.028,26.136,31.671L185.49,92.112z"
       id="path26" /><polygon
       points="129.807,71.495 110.135,69.835 121.408,53.627  "
       id="polygon28" /><circle
       cx="186.803"
       cy="91.408"
       r="7.444"
       id="circle30" /><g
       id="g32"><path
         d="M189.586,159.03c9.504-8.329,16.111,2.077,20.953-1.394v-14.676c-4.149-1.442-10.186-2.082-11.885-10.63    c-3.053-15.354,16.592-12.489,6.273-24.259c-10.32-11.771-10.042,8.086-24.865,3.052c-14.822-5.034-2.509-20.613-17.862-17.562    c-15.354,3.051,1.972,12.742-9.799,23.062c-11.771,10.32-19.103-8.127-24.137,6.695c-5.032,14.824,12.018,4.656,15.067,20.01    c3.052,15.354-16.591,12.488-6.272,24.259c10.322,11.773,10.041-8.084,24.865-3.051c7.911,2.688,8.09,8.874,8.87,13.13h15.725    C186.905,173.122,181.671,165.971,189.586,159.03z M165.189,154.922c-9.439-3.206-14.492-13.455-11.287-22.895    c3.205-9.44,13.457-14.493,22.896-11.288c9.438,3.206,14.491,13.456,11.286,22.896    C184.879,153.075,174.629,158.128,165.189,154.922z"
         id="path34" /></g><g
       id="g36"><path
         d="M86.596,127.869c7.739,8.828-6.095,14.333,5.022,18.108c11.118,3.774,3.49-9.019,15.006-11.308    c9.716-1.932,9.691,8.256,14.751,6.836c0.937-0.263,2.059-0.919,3.438-2.128c8.825-7.738-6.062-7.537-2.287-18.652    c3.775-11.116,15.457-1.884,13.165-13.399c-2.287-11.516-9.549,1.482-17.288-7.347c-7.74-8.827,6.094-14.332-5.022-18.108    c-11.116-3.775-3.488,9.019-15.006,11.308c-11.514,2.288-9.359-12.45-18.188-4.708c-8.827,7.738,6.06,7.535,2.285,18.652    c-1.704,5.021-5.02,5.89-7.935,6.395v11.964C77.823,124.946,82.129,122.774,86.596,127.869z M99.861,100.647    c7.333-1.458,14.459,3.307,15.918,10.638c1.457,7.333-3.307,14.459-10.64,15.917c-7.332,1.457-14.458-3.306-15.916-10.639    C87.766,109.231,92.53,102.105,99.861,100.647z"
         id="path38" /></g><path
       d="M204.539,41.666c5.623,0,6,8.155,6,10.809v110.698c0,7.717-2.719,14.494-6.061,14.494H82.838   c-3.735,0-8.299-6.958-8.299-14.494V52.473c0-6.341,3.646-10.808,8.299-10.808H204.539 M204.479,37.667H82.838   c-6.606,0-12.299,5.749-12.299,14.808v110.698c0,9.059,5.692,18.494,12.299,18.494h121.641c6.604,0,10.061-9.437,10.061-18.494   V52.473C214.539,43.415,211.084,37.667,204.479,37.667L204.479,37.667z"
       id="path40" /><path
       fill="#E6E6E6"
       d="M363.524,211.605h-33.473v-4.128c0-1.688,0.234-3.268,0.706-4.742c0.472-1.476,1.104-2.864,1.896-4.165   c0.793-1.302,1.723-2.529,2.789-3.683c1.066-1.152,2.207-2.27,3.422-3.348c1.215-1.079,2.455-2.12,3.72-3.124   c1.265-1.005,2.504-2.015,3.72-3.03c1.141-0.968,2.182-1.916,3.124-2.847c0.941-0.93,1.747-1.89,2.418-2.882   c0.669-0.991,1.188-2.039,1.562-3.144c0.372-1.104,0.558-2.3,0.558-3.589c0-1.412-0.217-2.646-0.649-3.7   c-0.436-1.054-1.041-1.935-1.822-2.642s-1.705-1.238-2.771-1.599c-1.065-0.359-2.231-0.539-3.495-0.539   c-2.184,0-4.401,0.508-6.657,1.525c-2.257,1.017-4.427,2.542-6.509,4.573v-8.293c1.091-0.817,2.193-1.53,3.31-2.139   c1.116-0.607,2.27-1.116,3.459-1.525c1.19-0.408,2.442-0.712,3.757-0.91c1.313-0.198,2.716-0.298,4.202-0.298   c2.404,0,4.587,0.316,6.546,0.948c1.958,0.632,3.633,1.563,5.021,2.79s2.461,2.758,3.218,4.593   c0.756,1.835,1.134,3.942,1.134,6.323c0,2.157-0.267,4.098-0.8,5.821s-1.289,3.328-2.269,4.815s-2.163,2.9-3.553,4.239   c-1.389,1.339-2.938,2.715-4.647,4.128c-1.438,1.166-2.87,2.301-4.296,3.403c-1.426,1.104-2.709,2.183-3.851,3.234   c-1.141,1.056-2.063,2.108-2.771,3.162c-0.708,1.055-1.061,2.113-1.061,3.181v0.186h24.063v7.402H363.524z"
       id="path42"
       style="fill:#e6e6e6;fill-opacity:1" /><path
       fill="#E6E6E6"
       d="M389.262,212.498c-5.556,0-9.889-2.269-12.999-6.806c-3.111-4.538-4.667-11.096-4.667-19.675   c0-9.421,1.623-16.551,4.872-21.386c3.246-4.835,7.934-7.252,14.058-7.252c11.728,0,17.592,9.112,17.592,27.335   c0,9.025-1.655,15.912-4.965,20.66C399.843,210.124,395.212,212.498,389.262,212.498z M390.116,164.26   c-6.471,0-9.707,7.128-9.707,21.385c0,13.34,3.174,20.01,9.521,20.01c6.248,0,9.372-6.781,9.372-20.344   C399.303,171.277,396.24,164.26,390.116,164.26z"
       id="path44" /><path
       fill="#E6E6E6"
       d="M433.854,157.082v54.523h-8.629v-43.96c-1.563,1.116-3.242,2.063-5.039,2.845   c-1.798,0.781-3.851,1.469-6.155,2.064v-7.364c1.438-0.471,2.826-0.967,4.165-1.488c1.339-0.521,2.659-1.103,3.961-1.748   c1.302-0.644,2.616-1.363,3.942-2.157s2.696-1.697,4.109-2.715H433.854L433.854,157.082z"
       id="path46" /><path
       d="M258.578,149.435h-2.481l-17.576-48.1h3.724l13.92,38.741c0.581,1.61,0.994,3.131,1.241,4.563h0.134   c0.225-1.142,0.683-2.685,1.375-4.629l14.792-38.675h3.557L258.578,149.435z"
       id="path50" /><path
       d="M284.808,149.435v-48.1h3.319v48.1H284.808z"
       id="path52" /><path
       d="M298.962,147.725v-3.791c3.443,2.191,6.933,3.287,10.466,3.287c3.757,0,6.607-0.776,8.554-2.331   c1.945-1.555,2.918-3.729,2.918-6.524c0-2.459-0.654-4.422-1.962-5.887c-1.31-1.464-4.144-3.46-8.503-5.987   c-4.875-2.839-7.961-5.216-9.259-7.127c-1.297-1.912-1.944-4.12-1.944-6.625c0-3.399,1.318-6.283,3.958-8.654   c2.639-2.37,6.16-3.556,10.564-3.556c2.862,0,5.726,0.481,8.587,1.442v3.487c-2.816-1.273-5.824-1.912-9.021-1.912   c-3.266,0-5.854,0.828-7.766,2.482c-1.911,1.655-2.867,3.757-2.867,6.306c0,2.46,0.653,4.417,1.962,5.87   c1.309,1.454,4.131,3.434,8.47,5.938c4.494,2.549,7.484,4.813,8.972,6.792c1.488,1.979,2.231,4.255,2.231,6.826   c0,3.688-1.281,6.696-3.841,9.021c-2.562,2.326-6.178,3.488-10.852,3.488c-1.654,0-3.562-0.257-5.72-0.771   C301.751,148.986,300.103,148.395,298.962,147.725z"
       id="path54" /><path
       d="M332.169,147.523v-8.218c0.737,0.671,1.615,1.274,2.634,1.812c1.017,0.537,2.096,0.989,3.235,1.358   c1.141,0.369,2.281,0.653,3.422,0.854s2.19,0.302,3.152,0.302c3.354,0,5.854-0.559,7.497-1.677s2.465-2.739,2.465-4.863   c0-1.141-0.272-2.13-0.821-2.969c-0.549-0.838-1.313-1.604-2.298-2.297c-0.983-0.693-2.142-1.358-3.472-1.996   c-1.331-0.637-2.756-1.302-4.276-1.996c-1.633-0.872-3.152-1.755-4.562-2.649s-2.634-1.884-3.673-2.969   c-1.04-1.084-1.856-2.309-2.449-3.673c-0.593-1.363-0.89-2.963-0.89-4.796c0-2.258,0.51-4.221,1.526-5.887   c1.019-1.666,2.359-3.041,4.025-4.125c1.665-1.084,3.561-1.89,5.685-2.415c2.125-0.525,4.294-0.789,6.508-0.789   c5.031,0,8.698,0.57,11.002,1.711v7.882c-2.729-1.968-6.238-2.952-10.531-2.952c-1.187,0-2.365,0.112-3.539,0.335   c-1.175,0.224-2.227,0.594-3.153,1.107c-0.928,0.515-1.683,1.174-2.264,1.979c-0.582,0.806-0.872,1.778-0.872,2.919   c0,1.072,0.224,2.001,0.671,2.783c0.447,0.783,1.101,1.499,1.962,2.147c0.86,0.648,1.912,1.28,3.153,1.895   c1.24,0.615,2.678,1.28,4.31,1.996c1.678,0.872,3.259,1.79,4.746,2.75c1.487,0.962,2.795,2.024,3.925,3.188   c1.129,1.163,2.023,2.455,2.685,3.874c0.658,1.42,0.988,3.036,0.988,4.847c0,2.438-0.492,4.495-1.476,6.171   c-0.984,1.677-2.311,3.042-3.976,4.092c-1.666,1.052-3.584,1.812-5.753,2.281s-4.461,0.705-6.876,0.705   c-0.805,0-1.795-0.062-2.969-0.185s-2.376-0.303-3.604-0.537c-1.23-0.235-2.394-0.521-3.488-0.855S332.839,147.948,332.169,147.523   z"
       id="path56" /><path
       d="M391.604,150.24c-6.933,0-12.483-2.248-16.653-6.742c-4.171-4.495-6.256-10.342-6.256-17.542   c0-7.735,2.125-13.908,6.373-18.515c4.249-4.606,10.018-6.91,17.308-6.91c6.753,0,12.193,2.236,16.318,6.708   c4.126,4.473,6.188,10.32,6.188,17.542c0,7.849-2.112,14.054-6.339,18.616C404.317,147.959,398.671,150.24,391.604,150.24z    M391.974,107.541c-4.405,0-7.988,1.645-10.75,4.932c-2.763,3.286-4.144,7.613-4.144,12.98c0,5.345,1.342,9.649,4.025,12.914   s6.192,4.897,10.532,4.897c4.605,0,8.238-1.555,10.9-4.662c2.66-3.108,3.991-7.458,3.991-13.048c0-5.747-1.292-10.186-3.874-13.316   C400.074,109.106,396.513,107.541,391.974,107.541z"
       id="path58" /><path
       d="M449.666,108.111h-17.979v14.457h16.569v6.742h-16.569v20.125h-7.983v-48.1h25.962V108.111z"
       id="path60" /><path
       d="M489.717,108.111h-13.819v41.324h-7.983v-41.324h-13.785v-6.775h35.589L489.717,108.111L489.717,108.111z"
       id="path62" /><g
       id="g64"><polygon
         fill="#231F20"
         points="445.567,93.517 445.567,78.74 449.66,78.74 449.66,93.517 445.567,93.517   "
         id="polygon66" /><polygon
         fill="#231F20"
         points="451.809,93.517 451.809,78.74 463.064,78.74 463.064,81.605 455.901,81.605 455.901,84.654     462.491,84.654 462.491,87.52 455.901,87.52 455.901,90.651 463.064,90.651 463.064,93.517 451.809,93.517   "
         id="polygon68" /><polygon
         fill="#231F20"
         points="465.358,93.517 465.358,78.74 476.612,78.74 476.612,81.605 469.45,81.605 469.45,84.654     476.038,84.654 476.038,87.52 469.45,87.52 469.45,90.651 476.612,90.651 476.612,93.517 465.358,93.517   "
         id="polygon70" /><g
         id="g72"><g
           id="g74"><defs
             id="defs76"><rect
               id="SVGID_1_"
               x="423.256"
               y="76.159"
               width="66.904"
               height="19.505" /></defs><clipPath
             id="SVGID_2_"><use
               xlink:href="#SVGID_1_"
               overflow="visible"
               id="use80" /></clipPath><polygon
             clip-path="url(#SVGID_2_)"
             fill="#231F20"
             points="478.904,93.517 478.904,78.74 490.16,78.74 490.16,81.605       483,81.605 483,84.654 489.589,84.654 489.589,87.52 483,87.52 483,90.651 490.16,90.651 490.16,93.517 478.904,93.517     "
             id="polygon82" /></g><g
           id="g84"><defs
             id="defs86"><rect
               id="SVGID_3_"
               x="423.256"
               y="76.159"
               width="66.904"
               height="19.505" /></defs><clipPath
             id="SVGID_4_"><use
               xlink:href="#SVGID_3_"
               overflow="visible"
               id="use90" /></clipPath><path
             clip-path="url(#SVGID_4_)"
             fill="#231F20"
             d="M432.594,87.611c-0.055,1.044-0.067,2.009-0.146,3.056      c0.413,0.038,0.879,0.073,1.319,0.01l-0.132-2.916l-0.022-0.14C433.277,87.635,432.961,87.647,432.594,87.611L432.594,87.611      L432.594,87.611z M430.014,84.681c-0.509,0.255-1.257,0.64-1.175,1.338c0.108,0.381,0.521,0.627,0.848,0.784      c1.805,0.795,4.199,0.821,6.104,0.229c0.472-0.181,1.103-0.444,1.188-1.02c-0.006-0.477-0.509-0.776-0.871-0.958v-0.022      c0.126-0.05,0.271-0.095,0.402-0.108V84.91c-0.64-0.114-1.254-0.281-1.872-0.445c0.119,0.271,0.205,0.558,0.304,0.84      c0.187-0.06,0.376-0.104,0.576-0.132c0.326,0.126,0.793,0.309,0.839,0.716c0.036,0.381-0.381,0.565-0.644,0.721      c-1.397,0.508-2.97,0.558-4.427,0.171c-0.401-0.126-0.982-0.29-1.032-0.802c0.284-0.675,1.023-0.815,1.641-0.979      c-0.316-0.204-0.639-0.385-0.946-0.611C430.616,84.405,430.313,84.552,430.014,84.681L430.014,84.681L430.014,84.681z       M433.1,80.611l-0.181,0.581l-0.906,2.598c0.227,0.023,0.508,0,0.73,0.023v0.021l-0.133,2.938l0.022,0.031      c0.29,0.027,0.651,0.043,0.947-0.008V86.75l-0.117-2.85l0.018-0.097l0.798-0.014c-0.397-1.052-0.784-2.113-1.156-3.178      L433.1,80.611L433.1,80.611L433.1,80.611z M432.679,79.306c0.667-0.455,1.266,0.181,1.782,0.544      c1.999,1.608,3.886,3.451,5.321,5.529c0.183,0.269,0.265,0.686,0.103,0.988c-0.373,0.622-0.876,1.189-1.354,1.765v0.031      c-1.188,1.266-2.442,2.565-3.8,3.638c-0.661,0.402-1.269,1.281-2.121,0.737c-1.94-1.419-3.799-3.182-5.374-5.074      c-0.267-0.416-0.684-0.757-0.869-1.229c-0.259-0.639,0.313-1.097,0.641-1.578C428.613,82.679,430.606,80.737,432.679,79.306      L432.679,79.306L432.679,79.306z M434.352,77.414l-0.738-1.046c-0.091-0.056-0.204-0.146-0.304-0.174      c-0.218-0.094-0.453,0.02-0.631,0.155l-1.337,1.74c-2.146,2.656-4.685,5.138-7.454,7.038c-0.219,0.171-0.544,0.338-0.612,0.62      c-0.072,0.253,0.06,0.463,0.217,0.62c2.22,1.528,4.339,3.342,6.228,5.41c0.335,0.352,0.606,0.702,0.935,1.033      c0.552,0.734,1.201,1.475,1.708,2.263c0.159,0.167,0.188,0.44,0.437,0.521c0.193,0.066,0.436,0.112,0.621,0l0.185-0.187      c2.296-3.251,5.206-6.171,8.458-8.528c0.326-0.291,0.947-0.398,0.956-0.938c-0.023-0.249-0.168-0.494-0.382-0.63l-0.054-0.009      c-1.674-1.139-3.232-2.427-4.701-3.887l-1.623-1.695C435.599,78.992,434.961,78.185,434.352,77.414L434.352,77.414      L434.352,77.414z M432.438,78.906c0.653-0.508,1.474-0.086,2.022,0.381c0.574,0.439,1.174,0.938,1.699,1.446l0.097,0.055      c1.455,1.352,2.808,2.853,3.918,4.438c0.18,0.275,0.339,0.589,0.237,0.956c-0.369,0.925-1.123,1.664-1.779,2.472      c-1.424,1.532-2.926,3.015-4.606,4.198c-0.341,0.239-0.799,0.462-1.206,0.271c-1.236-0.647-2.281-1.708-3.363-2.675      c-1.257-1.165-2.518-2.521-3.47-3.939c-0.142-0.198-0.181-0.443-0.177-0.706c0.122-0.49,0.457-0.894,0.775-1.307      c1.125-1.433,2.502-2.793,3.894-4.035c0.032-0.031,0.092-0.1,0.142-0.132C431.219,79.813,431.813,79.355,432.438,78.906      L432.438,78.906L432.438,78.906z"
             id="path92" /></g></g><path
         fill="#231F20"
         d="M436.471,94.198h-0.142V94.02h0.111c0.062,0,0.143,0.006,0.143,0.083    C436.584,94.184,436.543,94.198,436.471,94.198L436.471,94.198z M436.752,94.119c0-0.169-0.111-0.223-0.304-0.223h-0.275v0.739    h0.157v-0.312h0.075l0.17,0.312h0.188l-0.191-0.324C436.674,94.303,436.752,94.254,436.752,94.119L436.752,94.119z     M436.444,94.794v-0.002c-0.271,0.002-0.492-0.209-0.492-0.526c0-0.315,0.221-0.525,0.492-0.525c0.267,0,0.492,0.21,0.492,0.525    C436.937,94.583,436.711,94.794,436.444,94.794L436.444,94.794z M436.444,93.579c-0.365,0-0.688,0.252-0.688,0.687    s0.323,0.688,0.688,0.688c0.362,0,0.688-0.254,0.688-0.688S436.807,93.579,436.444,93.579L436.444,93.579z"
         id="path94" /></g><text
       xml:space="preserve"
       style="font-size:40px;font-style:normal;font-weight:normal;line-height:125%;letter-spacing:0px;word-spacing:0px;fill:#000000;fill-opacity:1;stroke:none;font-family:Sans"
       x="459.24985"
       y="192.30717"
       id="text3078"
       sodipodi:linespacing="125%"
       transform="translate(-1.5296553e-5,0)"><tspan
         sodipodi:role="line"
         id="tspan3080"
         x="459.24985"
         y="192.30717" /></text>
<a
       id="a3858"><text
         transform="scale(1.0871605,0.91982738)"
         sodipodi:linespacing="125%"
         id="text3082"
         y="228.51559"
         x="401.94727"
         style="font-size:76.99404144000000372px;font-style:normal;font-weight:normal;line-height:125%;letter-spacing:0px;word-spacing:0px;fill:#e9e9e9;fill-opacity:1;font-family:Sans;"
         xml:space="preserve"><tspan
           y="228.51559"
           x="401.94727"
           id="tspan3084"
           sodipodi:role="line">5</tspan></text>
</a></g><g
     id="Layer_5" /></svg>